<svg xmlns="http://www.w3.org/2000/svg" viewBox="0 0 512 512">
  <defs>
    <linearGradient id="body" x1="0%" y1="0%" x2="100%" y2="100%">
      <stop offset="0%" stop-color="#f4f4f4"/>
      <stop offset="50%" stop-color="#c8c8c8"/>
      <stop offset="100%" stop-color="#909090"/>
    </linearGradient>
    <linearGradient id="screen" x1="0%" y1="0%" x2="0%" y2="100%">
      <stop offset="0%" stop-color="#fafafa"/>
      <stop offset="100%" stop-color="#cfcfcf"/>
    </linearGradient>
    <linearGradient id="bumper" x1="0%" y1="0%" x2="100%" y2="0%">
      <stop offset="0%" stop-color="#a0a0a0"/>
      <stop offset="50%" stop-color="#d8d8d8"/>
      <stop offset="100%" stop-color="#a0a0a0"/>
    </linearGradient>
  </defs>

  <rect width="512" height="512" fill="#0a0a0a"/>

  <g transform="translate(146 16)">
    <rect x="-14" y="116" width="28" height="60" rx="6" fill="url(#bumper)" stroke="#7a7a7a" stroke-width="1"/>
    <rect x="-14" y="220" width="28" height="60" rx="6" fill="url(#bumper)" stroke="#7a7a7a" stroke-width="1"/>
    <rect x="206" y="116" width="28" height="60" rx="6" fill="url(#bumper)" stroke="#7a7a7a" stroke-width="1"/>
    <rect x="206" y="220" width="28" height="60" rx="6" fill="url(#bumper)" stroke="#7a7a7a" stroke-width="1"/>

    <rect x="0" y="0" width="220" height="480" rx="44" fill="url(#body)" stroke="#7a7a7a" stroke-width="1.5"/>

    <circle cx="38" cy="50" r="12" fill="#ffd54a" stroke="#b89030" stroke-width="1"/>
    <circle cx="182" cy="50" r="12" fill="#ffd54a" stroke="#b89030" stroke-width="1"/>

    <rect x="82" y="32" width="56" height="36" rx="6" fill="#1a1a1a"/>

    <rect x="24" y="92" width="172" height="284" rx="24" fill="url(#screen)" stroke="#9a9a9a" stroke-width="1.5"/>

    <rect x="20" y="404" width="56" height="56" rx="6" fill="#1a1a1a"/>
    <rect x="96" y="404" width="28" height="56" rx="6" fill="#1a1a1a"/>
    <rect x="144" y="404" width="56" height="56" rx="6" fill="#1a1a1a"/>
  </g>
</svg>
